<svg id="Ebene_1" data-name="Ebene 1" xmlns="http://www.w3.org/2000/svg" viewBox="0 0 315.45 243.55"><defs><style>.cls-1{fill:#009579;}.cls-2{fill:#fff;}.cls-3{fill:#1e1e1c;}</style></defs><path class="cls-1" d="M185.79,328.54a114.67,114.67,0,0,1-8.25-42.8c0-65.91,55.77-119.33,124.57-119.33s124.58,53.42,124.58,119.33c0,13.77-2.44,30.49-6.92,42.8" transform="translate(-111.24 -166.41)"/><path class="cls-2" d="M344.48,233.33v-.13a47.83,47.83,0,0,0-7.6-22.62c-5.52-8.48-16.53-18.84-37.62-20l0,.52,0-.52c-21.08,1.17-32.09,11.53-37.61,20A47.9,47.9,0,0,0,254,233.2v.13c-.27,9.28-.49,17.3,12.78,32.79,11.37,13.26,11.12,19.17,11.36,19.18v14.8H320V285.3c.34,0,.32-5.92,11.69-19.18,13.27-15.49,13-23.51,12.78-32.79m-27,63.92H280.6V284.31l.17-.18H293v.06h4.25v-.06h3.71v.06h4.24v-.06h12.36ZM328.07,263C322.6,269.4,319,275.1,317.29,280c-.12.33-.22.65-.31,1a2.33,2.33,0,0,0-.08.36H305.16v-5h-4.24v5h-3.71v-5H293v5H281.55c0-.12-.05-.24-.08-.36-.09-.3-.2-.62-.31-1-1.68-4.86-5.31-10.56-10.79-16.95-12.07-14.08-11.88-20.57-11.63-29.55v-.12a43.38,43.38,0,0,1,6.83-20.16c7.08-10.87,18.32-16.86,33.4-17.81h.48c15.09.95,26.33,6.94,33.41,17.81a43.38,43.38,0,0,1,6.83,20.16v.12c.26,9,.45,15.47-11.63,29.55" transform="translate(-111.24 -166.41)"/><path class="cls-2" d="M285.52,305.87l-2.25,2.26a22.31,22.31,0,0,0,31.5,0l-2.25-2.26a19.1,19.1,0,0,1-27,0" transform="translate(-111.24 -166.41)"/><path class="cls-2" d="M314.71,230.48A15.52,15.52,0,1,0,299.19,246a15.53,15.53,0,0,0,15.52-15.52m-15.52,12.18a12.18,12.18,0,1,1,12.18-12.18,12.19,12.19,0,0,1-12.18,12.18" transform="translate(-111.24 -166.41)"/><path class="cls-2" d="M299.19,222.39a8.09,8.09,0,1,0,8.09,8.09,8.1,8.1,0,0,0-8.09-8.09m0,14.44a6.35,6.35,0,1,1,6.35-6.35,6.35,6.35,0,0,1-6.35,6.35" transform="translate(-111.24 -166.41)"/><polygon class="cls-2" points="166.43 72 158.65 69.26 158.65 59.31 168.79 56.92 163.36 48.47 170.07 40.92 180.87 44.9 183.15 36.36 192.88 36.36 194.63 46.89 205.68 41.07 211.62 47.92 214.42 45.48 206.56 36.42 197.45 41.21 196.03 32.64 180.29 32.64 178.33 40.01 168.97 36.56 158.71 48.11 162.82 54.51 154.93 56.37 154.93 71.89 165.19 75.5 166.43 72"/><polygon class="cls-2" points="209.48 56.14 217.26 58.89 217.26 68.84 207.12 71.22 212.55 79.67 205.84 87.22 195.04 83.24 192.76 91.79 183.03 91.79 181.27 81.26 170.22 87.07 164.29 80.23 161.49 82.66 169.35 91.73 178.46 86.94 179.88 95.5 195.61 95.5 197.58 88.14 206.93 91.58 217.2 80.03 213.08 73.63 220.97 71.78 220.97 56.26 210.72 52.64 209.48 56.14"/><path class="cls-2" d="M274.13,231.41a2.12,2.12,0,1,0,2.12-2.12,2.12,2.12,0,0,0-2.12,2.12" transform="translate(-111.24 -166.41)"/><path class="cls-2" d="M285,215.76a2.12,2.12,0,1,0-2.12,2.12,2.12,2.12,0,0,0,2.12-2.12" transform="translate(-111.24 -166.41)"/><path class="cls-2" d="M301.45,209.4a2.12,2.12,0,1,0-2.12,2.12,2.12,2.12,0,0,0,2.12-2.12" transform="translate(-111.24 -166.41)"/><path class="cls-2" d="M315.24,213.64a2.12,2.12,0,1,0,2.12,2.12,2.12,2.12,0,0,0-2.12-2.12" transform="translate(-111.24 -166.41)"/><path class="cls-2" d="M321.61,233.8a2.13,2.13,0,1,0-2.13-2.12,2.12,2.12,0,0,0,2.13,2.12" transform="translate(-111.24 -166.41)"/><path class="cls-2" d="M315.24,248.65a2.12,2.12,0,1,0-2.12-2.12,2.12,2.12,0,0,0,2.12,2.12" transform="translate(-111.24 -166.41)"/><path class="cls-2" d="M297.21,254a2.12,2.12,0,1,0,2.12-2.12,2.12,2.12,0,0,0-2.12,2.12" transform="translate(-111.24 -166.41)"/><path class="cls-2" d="M283.41,249.18a2.12,2.12,0,1,0-2.12-2.12,2.12,2.12,0,0,0,2.12,2.12" transform="translate(-111.24 -166.41)"/><path class="cls-2" d="M303,267.75" transform="translate(-111.24 -166.41)"/><path class="cls-2" d="M303,272" transform="translate(-111.24 -166.41)"/><path class="cls-2" d="M303,267.75" transform="translate(-111.24 -166.41)"/><path class="cls-2" d="M295.08,267.75" transform="translate(-111.24 -166.41)"/><path class="cls-2" d="M295.08,272" transform="translate(-111.24 -166.41)"/><path class="cls-2" d="M295.08,267.75" transform="translate(-111.24 -166.41)"/><path class="cls-3" d="M111.24,230.64h23.5v58.48H135l19.58-28.59H180.3l-23.63,31.2,25.58,36.81H153.8L135,294.86h-.26v33.68h-23.5Z" transform="translate(-111.24 -166.41)"/><path class="cls-2" d="M218.24,249.52h-23.5V232.2h23.5Zm-23.5,11.16h23.5V329h-23.5Z" transform="translate(-111.24 -166.41)"/><path class="cls-3" d="M111.58,343.23H127.7q17.91-.28,18.36,17a14,14,0,0,1-4,10.24,17.3,17.3,0,0,1-9.85,4.89v.19a7.7,7.7,0,0,1,5.19,2.44,8.22,8.22,0,0,1,1.52,2.35,30,30,0,0,1,1.35,3.1l10.65,25.38h-6.8L135,386.65q-2.5-6.11-5.19-7.61a7.1,7.1,0,0,0-3-1c-1.14-.06-2.45-.09-4-.09h-5.1v30.92h-6.18Zm6.18,29h6.54a20.12,20.12,0,0,0,10.56-2.63q4.84-2.73,5-9.4a13.76,13.76,0,0,0-1.25-6.39,7.53,7.53,0,0,0-3.41-3.38,13.22,13.22,0,0,0-5-1.41q-2.86-.19-6.09-.19h-6.36Z" transform="translate(-111.24 -166.41)"/><path class="cls-3" d="M187.61,407.33A37.33,37.33,0,0,1,174.35,410q-11.19-.19-16-7.24-4.85-6.86-4.75-17.86.09-11.17,5.37-18.13a16.6,16.6,0,0,1,13.88-7q9.58.19,14,7.05,4.22,6.76,4.21,16.73v3H159.76q0,7.8,3.85,12.87,3.76,5.35,11.19,5.45a22,22,0,0,0,7-1.22,23.71,23.71,0,0,0,5.82-2.35Zm-2.78-25.85a24.15,24.15,0,0,0-2.6-11.47q-2.78-5-9-5.16a11.79,11.79,0,0,0-9.76,5.26,18.9,18.9,0,0,0-3.67,11.37Z" transform="translate(-111.24 -166.41)"/><path class="cls-3" d="M224.41,401.12h-.18a14,14,0,0,1-6,6.49,17.76,17.76,0,0,1-16.21.75,11.82,11.82,0,0,1-4.65-3.57q-2.87-4.69-2.69-8.36,0-6,2.78-9.5a14.81,14.81,0,0,1,6.89-5,35.5,35.5,0,0,1,9.14-2.07c3.22-.18,6.32-.28,9.31-.28h1.07v-2.44q.27-12.32-10.38-12.31a24,24,0,0,0-13.44,3.94v-5.64a31.66,31.66,0,0,1,13.44-3.38q16.2-.18,16,17.86v21.15a75.83,75.83,0,0,0,.45,10.05h-5.55Zm-.54-16.44h-1.61c-2.45,0-4.89.06-7.34.18a26.73,26.73,0,0,0-7,1.6,11,11,0,0,0-5,3.48,9.25,9.25,0,0,0-2.06,6.3c0,3.07.95,5.26,2.87,6.58a10.5,10.5,0,0,0,6.62,2.06,13.06,13.06,0,0,0,7.79-2.06,11.89,11.89,0,0,0,4-4.7,16,16,0,0,0,1.52-5.74c.12-1.94.18-3.54.18-4.79Z" transform="translate(-111.24 -166.41)"/><path class="cls-3" d="M239.36,338.34H245v70.49h-5.65Z" transform="translate(-111.24 -166.41)"/><path class="cls-3" d="M255.66,338.34h5.64v70.49h-5.64Z" transform="translate(-111.24 -166.41)"/><path class="cls-3" d="M298.19,401.12H298a14,14,0,0,1-6,6.49,17.74,17.74,0,0,1-16.2.75,11.86,11.86,0,0,1-4.66-3.57q-2.86-4.69-2.69-8.36,0-6,2.78-9.5a14.81,14.81,0,0,1,6.89-5,35.6,35.6,0,0,1,9.14-2.07c3.22-.18,6.33-.28,9.31-.28h1.08v-2.44q.27-12.32-10.39-12.31a24,24,0,0,0-13.43,3.94v-5.64a31.62,31.62,0,0,1,13.43-3.38q16.2-.18,16,17.86v21.15a75.83,75.83,0,0,0,.45,10.05h-5.56Zm-.53-16.44H296q-3.66,0-7.34.18a26.66,26.66,0,0,0-7,1.6,11.05,11.05,0,0,0-5,3.48,9.25,9.25,0,0,0-2.06,6.3q0,4.61,2.87,6.58a10.52,10.52,0,0,0,6.62,2.06,13.1,13.1,0,0,0,7.8-2.06,11.78,11.78,0,0,0,4-4.7,16.06,16.06,0,0,0,1.53-5.74c.12-1.94.18-3.54.18-4.79Z" transform="translate(-111.24 -166.41)"/><path class="cls-3" d="M312.61,338.34h5.64V369h.18a12.7,12.7,0,0,1,1.43-2.63,13.37,13.37,0,0,1,2.69-2.91,14.85,14.85,0,0,1,4.3-2.64,15.16,15.16,0,0,1,5.82-1q10,.09,14.51,7.05,4.29,6.85,4.29,18,0,10.81-4.65,17.86T332.67,410q-9.76.09-14.24-8.74h-.18v7.61h-5.64Zm32.69,46.52a57,57,0,0,0-.45-7.14,19.75,19.75,0,0,0-2.24-6.39,11.1,11.1,0,0,0-4.12-4.7,11.88,11.88,0,0,0-6.72-1.78,10.94,10.94,0,0,0-6.35,1.78,14.1,14.1,0,0,0-4.21,4.89,29.4,29.4,0,0,0-3,13.34,28.88,28.88,0,0,0,3.05,13.26,13.25,13.25,0,0,0,4.21,4.79,9.78,9.78,0,0,0,6.26,2,11,11,0,0,0,6.72-2,11.94,11.94,0,0,0,4.12-4.61,21.9,21.9,0,0,0,2.24-6.57A53.53,53.53,0,0,0,345.3,384.86Z" transform="translate(-111.24 -166.41)"/><path class="cls-3" d="M355.86,384.86q0-10.23,5.19-17.48,5.2-7.42,16.12-7.61,11.1.19,16.3,7.61,5,7.25,5,17.48a30,30,0,0,1-5,17.39q-5.19,7.53-16.3,7.71-10.92-.19-16.12-7.71A29.29,29.29,0,0,1,355.86,384.86Zm6.18,0q0,8.56,3.94,14.1,3.76,5.84,11.19,5.92A13.1,13.1,0,0,0,388.55,399q3.75-5.54,3.76-14.1t-3.76-14.28q-3.94-5.64-11.38-5.73-7.43.09-11.19,5.73Q362,376.31,362,384.86Z" transform="translate(-111.24 -166.41)"/><path class="cls-3" d="M405.56,371.61q0-6.67-.36-10.71h5.64v9.21H411a20.84,20.84,0,0,1,4.57-7.24,9.81,9.81,0,0,1,7.16-3.1,17.7,17.7,0,0,1,3.94.56v6.21a14.1,14.1,0,0,0-4.12-.57,9.38,9.38,0,0,0-5.46,1.7,12.16,12.16,0,0,0-3.49,4.6,24.76,24.76,0,0,0-1.79,6.11,37.92,37.92,0,0,0-.63,6.77v23.68h-5.64Z" transform="translate(-111.24 -166.41)"/></svg>